<svg width="100" height="100" viewBox="0 0 100 100" fill="none" xmlns="http://www.w3.org/2000/svg">
<rect width="100" height="100" rx="15" fill="#2C3646"/>
<path d="M48.125 9.52637C49.2853 8.85649 50.7147 8.85649 51.875 9.52637L84.1143 28.1387C85.2745 28.8085 85.9892 30.047 85.9893 31.3867V68.6133C85.9892 69.953 85.2745 71.1915 84.1143 71.8613L51.875 90.4736C50.7147 91.1435 49.2853 91.1435 48.125 90.4736L15.8857 71.8613C14.7255 71.1915 14.0108 69.953 14.0107 68.6133V31.3867C14.0108 30.047 14.7255 28.8085 15.8857 28.1387L48.125 9.52637Z" fill="#2C3646" stroke="#53C2C3" stroke-width="2.5"/>
<path d="M31.9564 44.1641C32.2497 44.9108 32.1297 45.5775 31.5964 46.1641L24.6764 53.0041C24.4364 53.2975 24.4364 53.5375 24.6764 53.7241L31.5164 60.6041C32.1031 61.1908 32.2497 61.8575 31.9564 62.6041C31.8231 62.9241 31.5964 63.1908 31.2764 63.4041C30.9564 63.6175 30.6097 63.7241 30.2364 63.7241H28.7164C28.1831 63.7241 27.7564 63.5375 27.4364 63.1641L19.4364 55.2041C19.0897 54.8575 18.9164 54.4308 18.9164 53.9241V52.8041C18.9164 52.3508 19.0897 51.9241 19.4364 51.5241L27.4364 43.5641C27.7564 43.1908 28.1831 43.0041 28.7164 43.0041H30.2764C30.6497 43.0041 30.9831 43.1108 31.2764 43.3241C31.5964 43.5375 31.8231 43.8175 31.9564 44.1641Z" fill="#53C2C3"/>
<path d="M81.0773 53.9241C81.0773 54.4575 80.904 54.8841 80.5573 55.2041L72.5973 63.1641C72.1707 63.5375 71.7307 63.7241 71.2773 63.7241H69.7173C69.3707 63.7241 69.0373 63.6175 68.7173 63.4041C68.424 63.1908 68.1973 62.9241 68.0373 62.6041C67.744 61.8841 67.8773 61.2175 68.4373 60.6041L75.2773 53.7241C75.5707 53.5375 75.5707 53.2975 75.2773 53.0041L68.4373 46.1641C67.8507 45.6308 67.7173 44.9641 68.0373 44.1641C68.1707 43.8175 68.3973 43.5375 68.7173 43.3241C69.0373 43.1108 69.3707 43.0041 69.7173 43.0041H71.2773C71.7307 43.0041 72.1707 43.1908 72.5973 43.5641L80.5573 51.5241C80.904 51.8708 81.0773 52.2975 81.0773 52.8041V53.9241Z" fill="#53C2C3"/>
<path d="M47.1763 53.8681C47.0452 54.3575 46.751 54.7342 46.2937 54.9982C45.8692 55.2433 45.4122 55.3003 44.9228 55.1692L43.4546 54.7758C42.5273 54.5273 41.7394 54.0677 41.0909 53.397C40.4424 52.7263 39.9898 51.9425 39.7332 51.0455C39.4766 50.1485 39.4726 49.2364 39.721 48.3091L41.1083 43.1318C41.1911 42.8227 41.0651 42.6233 40.7303 42.5335L40.1507 42.3782C39.6613 42.2471 39.2812 41.9658 39.0103 41.5343C38.772 41.084 38.7185 40.6141 38.8496 40.1247L39.1395 39.0429C39.2706 38.5535 39.5485 38.1862 39.9731 37.9411C40.4303 37.6771 40.9036 37.6107 41.393 37.7418L41.9726 37.8971C42.3074 37.9868 42.5197 37.8642 42.6095 37.5294L43.9864 32.3907C44.2348 31.4634 44.6944 30.6755 45.3651 30.027C46.0358 29.3785 46.8197 28.9259 47.7166 28.6693C48.6136 28.4127 49.5257 28.4087 50.453 28.6571L51.9212 29.0505C52.4106 29.1817 52.7779 29.4595 53.023 29.8841C53.2939 30.3156 53.3604 30.7889 53.2223 31.3041L52.9428 32.3473C52.8117 32.8367 52.5209 33.2005 52.0706 33.4387C51.646 33.6839 51.189 33.7409 50.6996 33.6097L49.2314 33.2163C49.1026 33.1818 48.9566 33.2117 48.7933 33.306C48.6626 33.3814 48.5801 33.4835 48.5455 33.6123L46.8891 39.7942C46.8201 40.0518 46.7288 40.2896 46.6151 40.5076C46.5342 40.7068 46.4369 40.9154 46.3232 41.1334C46.1323 41.3307 46.0633 41.5883 46.1162 41.9061C46.1056 42.1518 46.0821 42.3939 46.0457 42.6327C46.042 42.8525 46.0057 43.0912 45.9367 43.3488L44.2802 49.5307C44.2457 49.6595 44.2627 49.8021 44.3312 49.9585C44.4324 50.0961 44.5474 50.1821 44.6762 50.2166L46.1444 50.61C46.6338 50.7411 47.0011 51.019 47.2462 51.4436C47.524 51.8493 47.5973 52.2969 47.4662 52.7863L47.1763 53.8681Z" fill="#53C2C3"/>
<path d="M60.1456 59.3223C60.2767 58.8329 60.2103 58.3596 59.9463 57.9024C59.7011 57.4778 59.3339 57.1999 58.8445 57.0688L58.2649 56.9135C57.9301 56.8238 57.804 56.6244 57.8869 56.3153L59.2741 51.1379C59.5226 50.2106 59.5185 49.2985 59.262 48.4015C59.0054 47.5046 58.5528 46.7207 57.9043 46.05C57.2816 45.3862 56.4937 44.9266 55.5406 44.6713L54.0724 44.2779C53.583 44.1467 53.1131 44.2003 52.6628 44.4385C52.2313 44.7094 51.95 45.0895 51.8189 45.5789L51.529 46.6608C51.3979 47.1502 51.4583 47.5943 51.7103 47.9931C51.9812 48.4246 52.3614 48.7059 52.8508 48.837L54.319 49.2304C54.4478 49.2649 54.5499 49.3475 54.6253 49.4782C54.7196 49.6415 54.7495 49.7875 54.715 49.9163L53.0585 56.0982C52.9343 56.5619 52.8873 57.0462 52.9177 57.5513C52.919 57.8553 52.85 58.1129 52.7106 58.324C52.4318 58.7462 52.2303 59.1892 52.1061 59.6528L50.4496 65.8348C50.4151 65.9635 50.3197 66.0622 50.1633 66.1307C50.0257 66.2319 49.8926 66.2652 49.7638 66.2307L48.2956 65.8373C47.8062 65.7062 47.3363 65.7597 46.886 65.998C46.4614 66.2431 46.1835 66.6104 46.0524 67.0998L45.7729 68.143C45.6348 68.6581 45.6884 69.128 45.9335 69.5526C46.2044 69.9841 46.5845 70.2654 47.0739 70.3965L48.5421 70.7899C49.4952 71.0453 50.4073 71.0412 51.2785 70.7777C52.1755 70.5211 52.9594 70.0686 53.6301 69.4201C54.3008 68.7716 54.7603 67.9837 55.0088 67.0564L56.3857 61.9177C56.4754 61.5828 56.6877 61.4602 57.0226 61.55L57.6021 61.7053C58.0915 61.8364 58.552 61.7665 58.9835 61.4956C59.4338 61.2574 59.7245 60.8936 59.8557 60.4042L60.1456 59.3223Z" fill="#53C2C3"/>
</svg>
